<?xml version="1.0" encoding="iso-8859-1"?>
<!-- Generator: Adobe Illustrator 16.0.0, SVG Export Plug-In . SVG Version: 6.00 Build 0)  -->
<!DOCTYPE svg PUBLIC "-//W3C//DTD SVG 1.1//EN" "http://www.w3.org/Graphics/SVG/1.1/DTD/svg11.dtd">
<svg version="1.1" id="Capa_1" xmlns="http://www.w3.org/2000/svg" xmlns:xlink="http://www.w3.org/1999/xlink" x="0px" y="0px"
	 width="31.132px" height="31.132px" viewBox="0 0 31.132 31.132" style="enable-background:new 0 0 31.132 31.132;"
	 xml:space="preserve">
<g>
	<g>
		<path  fill="#fec91a" d="M30.697,26.199l-3.406-3.404c0.99-2.178,0.599-4.835-1.188-6.624c-2.303-2.302-6.048-2.302-8.351,0
			c-2.301,2.301-2.301,6.046,0.002,8.349c1.787,1.788,4.445,2.18,6.621,1.189l3.406,3.404L30.697,26.199z M24.626,23.048
			c-1.488,1.489-3.912,1.487-5.401,0c-1.489-1.489-1.489-3.913,0-5.401c1.489-1.49,3.913-1.49,5.401,0
			C26.117,19.134,26.117,21.558,24.626,23.048z"/>
		<path fill="#fec91a"  d="M21.916,27.283c-1.612,0-3.141-0.545-4.371-1.549H4.714V23.65h11.102c-0.395-0.729-0.648-1.525-0.761-2.356H4.714v-2.083
			h10.368c0.137-0.836,0.424-1.633,0.849-2.357H4.714V14.77h13.087c1.188-0.881,2.616-1.364,4.125-1.364
			c1.321,0,2.583,0.372,3.674,1.055V0L9.471,0.002L9.449,9.485H0.435v21.647H25.6v-2.724l-1.481-1.481
			C23.41,27.162,22.66,27.283,21.916,27.283z"/>
		<polygon fill="#fec91a" points="7.523,1.03 1.357,7.539 7.508,7.539 		"/>
	</g>
</g>
<g>
</g>
<g>
</g>
<g>
</g>
<g>
</g>
<g>
</g>
<g>
</g>
<g>
</g>
<g>
</g>
<g>
</g>
<g>
</g>
<g>
</g>
<g>
</g>
<g>
</g>
<g>
</g>
<g>
</g>
</svg>
